<svg width="176" height="42" viewBox="0 0 176 42" fill="none" xmlns="http://www.w3.org/2000/svg">
<path d="M56.8985 32.7641C55.2278 32.7641 53.7144 32.3999 52.3585 31.6717C51.0267 30.9191 49.9613 29.8388 49.1623 28.4308C48.3874 26.9986 48 25.2871 48 23.2965C48 21.2816 48.4358 19.5702 49.3075 18.1622C50.1792 16.7542 51.3294 15.686 52.758 14.9578C54.1866 14.2052 55.7242 13.8289 57.3707 13.8289C58.4845 13.8289 59.4652 14.011 60.3127 14.3752C61.1843 14.7393 61.9592 15.2005 62.6372 15.7589L60.1311 19.2182C59.2836 18.5142 58.4724 18.1622 57.6976 18.1622C56.4143 18.1622 55.3852 18.6234 54.6103 19.5459C53.8597 20.4684 53.4844 21.7186 53.4844 23.2965C53.4844 24.8502 53.8597 26.1004 54.6103 27.0471C55.3852 27.9696 56.3537 28.4308 57.516 28.4308C58.0971 28.4308 58.6661 28.3095 59.223 28.0667C59.78 27.7997 60.2884 27.4841 60.7485 27.12L62.8551 30.6157C61.9592 31.3925 60.9906 31.9508 59.9495 32.2907C58.9083 32.6063 57.8913 32.7641 56.8985 32.7641Z" fill="black"/>
<path d="M68.6796 32.7641C67.0331 32.7641 65.7255 32.2422 64.757 31.1983C63.7885 30.1302 63.3042 28.8314 63.3042 27.302C63.3042 25.4085 64.1032 23.9277 65.7013 22.8596C67.2994 21.7914 69.8782 21.0753 73.4376 20.7111C73.3892 19.91 73.147 19.2789 72.7112 18.8176C72.2996 18.3321 71.5974 18.0894 70.6046 18.0894C69.854 18.0894 69.0913 18.235 68.3164 18.5263C67.5416 18.8176 66.7183 19.2182 65.8466 19.728L63.9216 16.1958C65.0597 15.4918 66.2704 14.9214 67.5537 14.4844C68.8612 14.0474 70.2172 13.8289 71.6216 13.8289C73.9219 13.8289 75.6895 14.4965 76.9244 15.8317C78.1593 17.1669 78.7767 19.2182 78.7767 21.9856V32.3271H74.4183L74.0551 30.47H73.9098C73.1591 31.1497 72.348 31.7081 71.4763 32.145C70.6288 32.5577 69.6966 32.7641 68.6796 32.7641ZM70.4956 28.6129C71.101 28.6129 71.6216 28.4794 72.0574 28.2124C72.5175 27.9211 72.9775 27.5448 73.4376 27.0835V23.9155C71.5489 24.1583 70.2414 24.5467 69.515 25.0808C68.7886 25.5906 68.4254 26.1975 68.4254 26.9015C68.4254 27.4841 68.607 27.9211 68.9702 28.2124C69.3576 28.4794 69.8661 28.6129 70.4956 28.6129Z" fill="black"/>
<path d="M86.6829 32.7641C84.8426 32.7641 83.5593 32.2179 82.8329 31.1255C82.1307 30.0088 81.7796 28.5401 81.7796 26.7194V6.8011H87.1187V26.9379C87.1187 27.4962 87.2156 27.8846 87.4093 28.1031C87.6272 28.3216 87.8451 28.4308 88.063 28.4308C88.1841 28.4308 88.281 28.4308 88.3536 28.4308C88.4505 28.4066 88.5715 28.3823 88.7168 28.358L89.3706 32.3271C89.08 32.4485 88.7047 32.5456 88.2446 32.6184C87.8088 32.7155 87.2882 32.7641 86.6829 32.7641Z" fill="black"/>
<path d="M90.6587 32.3271V14.2659H95.9979V32.3271H90.6587ZM93.3101 11.6077C92.4142 11.6077 91.6878 11.3528 91.1309 10.843C90.574 10.3332 90.2955 9.65351 90.2955 8.80386C90.2955 7.9542 90.574 7.27448 91.1309 6.76469C91.6878 6.2549 92.4142 6 93.3101 6C94.206 6 94.9325 6.2549 95.4894 6.76469C96.0463 7.27448 96.3247 7.9542 96.3247 8.80386C96.3247 9.65351 96.0463 10.3332 95.4894 10.843C94.9325 11.3528 94.206 11.6077 93.3101 11.6077Z" fill="black"/>
<path d="M99.1832 32.3271V14.2659H103.542L103.905 16.5964H104.05C104.801 15.8438 105.6 15.2005 106.447 14.6665C107.295 14.1081 108.312 13.8289 109.498 13.8289C110.782 13.8289 111.811 14.096 112.585 14.6301C113.385 15.1398 114.014 15.8803 114.474 16.8513C115.273 16.0259 116.121 15.3219 117.017 14.7393C117.912 14.1324 118.954 13.8289 120.14 13.8289C122.077 13.8289 123.494 14.4844 124.39 15.7953C125.31 17.0819 125.77 18.854 125.77 21.1117V32.3271H120.431V21.8036C120.431 20.4927 120.249 19.5945 119.886 19.1089C119.547 18.6234 118.99 18.3807 118.215 18.3807C117.319 18.3807 116.29 18.9633 115.128 20.1285V32.3271H109.789V21.8036C109.789 20.4927 109.607 19.5945 109.244 19.1089C108.905 18.6234 108.348 18.3807 107.573 18.3807C106.677 18.3807 105.66 18.9633 104.522 20.1285V32.3271H99.1832Z" fill="black"/>
<path d="M136.875 32.7641C135.156 32.7641 133.606 32.3878 132.226 31.6353C130.846 30.8827 129.756 29.8024 128.957 28.3944C128.158 26.9864 127.759 25.2871 127.759 23.2965C127.759 21.3302 128.158 19.643 128.957 18.235C129.78 16.827 130.846 15.7467 132.153 14.9942C133.461 14.2174 134.829 13.8289 136.258 13.8289C137.977 13.8289 139.393 14.2174 140.507 14.9942C141.645 15.7467 142.493 16.7785 143.049 18.0894C143.631 19.376 143.921 20.8447 143.921 22.4954C143.921 22.9567 143.897 23.4179 143.849 23.8791C143.8 24.3161 143.752 24.6438 143.703 24.8623H132.916C133.158 26.1732 133.703 27.1442 134.55 27.7754C135.398 28.3823 136.415 28.6857 137.601 28.6857C138.885 28.6857 140.18 28.2852 141.488 27.4841L143.267 30.7249C142.347 31.3561 141.318 31.8537 140.18 32.2179C139.042 32.582 137.94 32.7641 136.875 32.7641ZM132.88 21.3302H139.381C139.381 20.3349 139.139 19.5216 138.655 18.8905C138.195 18.235 137.432 17.9073 136.367 17.9073C135.543 17.9073 134.805 18.1986 134.151 18.7812C133.497 19.3396 133.073 20.1892 132.88 21.3302Z" fill="black"/>
<path d="M146.097 32.3271V14.2659H150.456L150.819 17.4339H150.964C151.618 16.2201 152.405 15.3219 153.325 14.7393C154.245 14.1324 155.165 13.8289 156.085 13.8289C156.594 13.8289 157.018 13.8654 157.357 13.9382C157.696 13.9867 157.986 14.0717 158.228 14.1931L157.357 18.8176C157.042 18.7205 156.727 18.6477 156.412 18.5991C156.122 18.5506 155.783 18.5263 155.395 18.5263C154.717 18.5263 154.003 18.7812 153.252 19.291C152.526 19.7765 151.921 20.6262 151.436 21.84V32.3271H146.097Z" fill="black"/>
<path d="M166.437 32.7641C164.911 32.7641 163.471 32.3999 162.115 31.6717C160.783 30.9191 159.705 29.8388 158.882 28.4308C158.059 26.9986 157.647 25.2871 157.647 23.2965C157.647 21.2816 158.059 19.5702 158.882 18.1622C159.705 16.7542 160.783 15.686 162.115 14.9578C163.471 14.2052 164.911 13.8289 166.437 13.8289C167.962 13.8289 169.391 14.2052 170.723 14.9578C172.054 15.686 173.132 16.7542 173.955 18.1622C174.778 19.5702 175.19 21.2816 175.19 23.2965C175.19 25.2871 174.778 26.9986 173.955 28.4308C173.132 29.8388 172.054 30.9191 170.723 31.6717C169.391 32.3999 167.962 32.7641 166.437 32.7641ZM166.437 28.4308C167.526 28.4308 168.35 27.9696 168.907 27.0471C169.464 26.1004 169.742 24.8502 169.742 23.2965C169.742 21.7186 169.464 20.4684 168.907 19.5459C168.35 18.6234 167.526 18.1622 166.437 18.1622C165.323 18.1622 164.488 18.6234 163.931 19.5459C163.398 20.4684 163.132 21.7186 163.132 23.2965C163.132 24.8502 163.398 26.1004 163.931 27.0471C164.488 27.9696 165.323 28.4308 166.437 28.4308Z" fill="black"/>
<path fill-rule="evenodd" clip-rule="evenodd" d="M3.21361 5.33859C13.5944 -0.654829 26.0853 0.921464 31.2542 2.51814C32.2179 2.81583 32.7588 3.84169 32.4624 4.80946C32.166 5.77723 31.1444 6.32044 30.1807 6.02274C25.5311 4.58647 14.1991 3.22552 5.0335 8.51733C4.83183 8.63377 4.71842 8.84697 4.72905 9.06912C5.07723 16.3488 8.84508 30.2407 21.8263 37.5021C22.7071 37.9949 23.0234 39.1113 22.5328 39.9959C22.0421 40.8804 20.9303 41.1981 20.0495 40.7054C5.53959 32.5888 1.46289 17.2086 1.082 9.24502C1.00513 7.63785 1.83422 6.13499 3.21361 5.33859Z" fill="black"/>
<path fill-rule="evenodd" clip-rule="evenodd" d="M37.8785 5.18974C38.8854 5.13661 39.7445 5.91322 39.7974 6.92435C40.4921 20.2005 33.6277 29.9375 29.2034 34.0562C28.094 35.0889 26.4371 35.4918 24.9211 34.8372C21.7759 33.4792 18.7314 30.6223 16.2591 27.773C13.75 24.8814 11.6552 21.7909 10.4338 19.716C9.92069 18.8444 10.2084 17.7201 11.0763 17.2048C11.9443 16.6896 13.0638 16.9785 13.5769 17.8501C14.6993 19.7569 16.6666 22.6613 19.0119 25.3642C21.3939 28.1094 23.996 30.4466 26.3633 31.4687C26.4285 31.4968 26.5683 31.5095 26.7211 31.3672C30.595 27.7609 36.7736 19.0121 36.1512 7.11674C36.0983 6.10562 36.8716 5.24287 37.8785 5.18974Z" fill="black"/>
<path fill-rule="evenodd" clip-rule="evenodd" d="M18.2592 12.2261C15.0031 12.5633 12.2854 13.3493 10.8708 13.9312C9.9378 14.315 8.87162 13.8665 8.48946 12.9295C8.1073 11.9926 8.55387 10.9219 9.48691 10.5381C11.2468 9.81425 14.3069 8.94932 17.8847 8.57881C21.465 8.20803 25.6879 8.31926 29.7091 9.65999C31.4352 10.2355 32.6511 11.8998 32.5249 13.8129C32.2634 17.7789 30.451 21.8342 26.8402 26.4813C26.2199 27.2796 25.0727 27.4218 24.2778 26.7989C23.4829 26.176 23.3413 25.024 23.9616 24.2257C27.3234 19.899 28.6863 16.5335 28.8816 13.5707C28.892 13.4132 28.7935 13.2182 28.5585 13.1399C25.1802 12.0135 21.5128 11.8892 18.2592 12.2261Z" fill="black"/>
<path fill-rule="evenodd" clip-rule="evenodd" d="M2.86565 4.74424C13.4786 -1.38318 26.1916 0.234299 31.4598 1.86167C32.7927 2.2734 33.5302 3.68581 33.1247 5.00954C32.7183 6.33638 31.3113 7.09198 29.9751 6.67922C27.7258 5.9844 23.8073 5.29479 19.3223 5.43417C14.8534 5.57305 9.86788 6.5334 5.42308 9.08771C5.78047 16.2553 9.50414 29.8203 22.1661 36.9031C23.3811 37.5828 23.8112 39.116 23.1392 40.3276C22.4647 41.5436 20.9293 41.9866 19.7097 41.3044C4.91015 33.0257 0.777319 17.3659 0.390467 9.27764C0.301365 7.41471 1.26245 5.66986 2.86565 4.74424ZM4.15854 5.59805L4.72539 6.58817C4.91437 6.91825 4.79811 7.33796 4.46572 7.52562C4.13334 7.71328 3.71069 7.59783 3.52172 7.26776L2.99137 6.34142C2.18257 7.05049 1.72036 8.10081 1.77352 9.21241C2.14845 17.0514 6.16903 32.1518 20.3893 40.1063C20.9313 40.4096 21.6196 40.2173 21.9264 39.6642C22.2356 39.1067 22.0332 38.4069 21.4865 38.1011C8.21625 30.678 4.39171 16.507 4.03752 9.10173C4.01471 8.62475 4.25925 8.1691 4.68553 7.92299C9.39587 5.20345 14.642 4.20394 19.2789 4.05984C23.9137 3.91581 27.986 4.62481 30.3863 5.36627C30.9775 5.54889 31.6136 5.21808 31.8001 4.60938C31.9875 3.99757 31.6431 3.35827 31.0486 3.17462C26.0781 1.63921 14.1868 0.133495 4.15854 5.59805ZM37.8418 4.50321C39.238 4.42954 40.4164 5.50528 40.4888 6.88867C41.1968 20.4208 34.2053 30.3421 29.6768 34.5578C28.3878 35.7578 26.4408 36.243 24.6451 35.4677C21.3519 34.0458 18.2238 31.0905 15.7346 28.2218C13.1948 25.2947 11.076 22.1693 9.83608 20.0629C9.13313 18.8688 9.52427 17.3252 10.7211 16.6147C11.9226 15.9015 13.469 16.3046 14.1746 17.5032C15.2785 19.3785 17.2219 22.248 19.5364 24.9154C21.8151 27.5416 24.2358 29.7153 26.3942 30.7278C30.1716 27.1358 36.061 18.6426 35.4598 7.15242C35.3875 5.76963 36.4462 4.57685 37.8418 4.50321ZM39.106 6.96003C39.0726 6.32117 38.5327 5.84369 37.9152 5.87628C37.2971 5.90889 36.8091 6.44161 36.8426 7.08107C37.4783 19.232 31.1729 28.1652 27.1946 31.8688C26.8455 32.1938 26.4123 32.2395 26.0873 32.0992C23.5718 31.0131 20.886 28.5772 18.4874 25.813C16.1113 23.0746 14.1201 20.1353 12.9792 18.1971C12.6587 17.6525 11.966 17.4777 11.4316 17.795C10.8925 18.115 10.7082 18.82 11.0314 19.369C12.2343 21.4125 14.3053 24.4681 16.7836 27.3242C19.2391 30.1541 22.1998 32.9126 25.1972 34.2067C26.4333 34.7405 27.8002 34.4201 28.7299 33.5546C33.05 29.5329 39.7873 19.9803 39.106 6.96003ZM17.8129 7.89502C21.4559 7.51775 25.7852 7.6265 29.9294 9.00824C31.94 9.6786 33.3633 11.6195 33.2158 13.8578C32.942 18.01 31.046 22.1938 27.3883 26.9013C26.5338 28.0011 24.9478 28.1996 23.849 27.3386C22.7548 26.4813 22.5625 24.9009 23.4134 23.8057C26.6441 19.6478 27.9415 16.4674 28.1748 13.738C24.964 12.7021 21.4686 12.585 18.331 12.9099C15.1366 13.2407 12.4845 14.0116 11.1358 14.5664C9.84267 15.0982 8.37231 14.4736 7.84779 13.1876C7.32482 11.9054 7.93292 10.4332 9.22198 9.90294C11.0478 9.15196 14.1734 8.27192 17.8129 7.89502ZM29.4887 10.3117C25.5905 9.01201 21.4742 8.89832 17.9565 9.2626C14.4404 9.62673 11.4458 10.4765 9.75183 11.1733C9.17483 11.4106 8.88978 12.0797 9.13113 12.6714C9.37094 13.2594 10.0329 13.5317 10.6059 13.296C12.0864 12.6871 14.8696 11.8859 18.1874 11.5423C21.5037 11.1989 25.2776 11.3207 28.7789 12.4881C29.3129 12.6662 29.6033 13.1481 29.5725 13.6156C29.3649 16.7644 27.9185 20.2585 24.5097 24.6457C24.1201 25.147 24.211 25.8708 24.7067 26.2592C25.1977 26.6439 25.9061 26.5581 26.2921 26.0613C29.8559 21.4746 31.5849 17.5479 31.8341 13.768C31.9388 12.18 30.9304 10.7924 29.4887 10.3117Z" fill="black"/>
</svg>
