<svg width="352" height="68" viewBox="0 0 352 68" fill="none" xmlns="http://www.w3.org/2000/svg">
<path d="M92.7515 55.8458C89.33 55.8458 86.2309 55.102 83.4541 53.6144C80.7268 52.0773 78.545 49.8707 76.9087 46.9947C75.3219 44.0691 74.5285 40.5733 74.5285 36.5072C74.5285 32.3915 75.4211 28.8957 77.2062 26.0197C78.9913 23.1437 81.3466 20.9619 84.2722 19.4743C87.1978 17.9372 90.3465 17.1686 93.7184 17.1686C95.9994 17.1686 98.0076 17.5405 99.7431 18.2843C101.528 19.0281 103.115 19.9702 104.503 21.1107L99.3712 28.1767C97.6357 26.7387 95.9746 26.0197 94.3878 26.0197C91.7597 26.0197 89.6523 26.9619 88.0656 28.8461C86.5284 30.7304 85.7598 33.2841 85.7598 36.5072C85.7598 39.6807 86.5284 42.2344 88.0656 44.1683C89.6523 46.0525 91.6358 46.9947 94.0159 46.9947C95.206 46.9947 96.3713 46.7467 97.5117 46.2509C98.6522 45.7054 99.6935 45.0608 100.636 44.317L104.95 51.4574C103.115 53.0442 101.132 54.1847 98.9993 54.8789C96.8671 55.5235 94.7845 55.8458 92.7515 55.8458Z" fill="#33CA7F"/>
<path d="M116.877 55.8458C113.506 55.8458 110.828 54.7797 108.844 52.6475C106.861 50.4657 105.869 47.8128 105.869 44.6889C105.869 40.8212 107.506 37.7964 110.778 35.6146C114.051 33.4328 119.332 31.9701 126.621 31.2263C126.522 29.5899 126.026 28.3007 125.134 27.3585C124.291 26.3668 122.853 25.871 120.82 25.871C119.282 25.871 117.72 26.1685 116.134 26.7635C114.547 27.3585 112.861 28.1767 111.076 29.218L107.134 22.0032C109.464 20.5652 111.944 19.4 114.572 18.5074C117.249 17.6149 120.026 17.1686 122.902 17.1686C127.613 17.1686 131.233 18.5322 133.762 21.2594C136.29 23.9867 137.555 28.1767 137.555 33.8295V54.9532H128.629L127.886 51.1599H127.588C126.051 52.5483 124.39 53.6888 122.605 54.5814C120.869 55.4243 118.96 55.8458 116.877 55.8458ZM120.596 47.3666C121.836 47.3666 122.902 47.0938 123.795 46.5484C124.737 45.9534 125.679 45.1848 126.621 44.2426V37.7716C122.753 38.2675 120.076 39.0609 118.588 40.1518C117.101 41.1931 116.357 42.4327 116.357 43.8707C116.357 45.0608 116.729 45.9534 117.472 46.5484C118.266 47.0938 119.307 47.3666 120.596 47.3666Z" fill="#33CA7F"/>
<path d="M153.746 55.8458C149.977 55.8458 147.349 54.7301 145.861 52.4987C144.423 50.2178 143.704 47.2178 143.704 43.4988V2.81339H154.638V43.9451C154.638 45.0856 154.836 45.879 155.233 46.3253C155.679 46.7715 156.126 46.9947 156.572 46.9947C156.82 46.9947 157.018 46.9947 157.167 46.9947C157.365 46.9451 157.613 46.8955 157.911 46.8459L159.25 54.9532C158.655 55.2012 157.886 55.3995 156.944 55.5483C156.051 55.7466 154.985 55.8458 153.746 55.8458Z" fill="#33CA7F"/>
<path d="M161.888 54.9532V18.0611H172.821V54.9532H161.888ZM167.317 12.6315C165.483 12.6315 163.995 12.1108 162.854 11.0695C161.714 10.0282 161.144 8.63977 161.144 6.90425C161.144 5.16873 161.714 3.78032 162.854 2.73901C163.995 1.6977 165.483 1.17705 167.317 1.17705C169.152 1.17705 170.64 1.6977 171.78 2.73901C172.92 3.78032 173.491 5.16873 173.491 6.90425C173.491 8.63977 172.92 10.0282 171.78 11.0695C170.64 12.1108 169.152 12.6315 167.317 12.6315Z" fill="#33CA7F"/>
<path d="M179.344 54.9532V18.0611H188.27L189.014 22.8214H189.311C190.848 21.2842 192.485 19.9702 194.22 18.8793C195.956 17.7388 198.038 17.1686 200.468 17.1686C203.096 17.1686 205.204 17.714 206.79 18.8049C208.427 19.8462 209.716 21.3586 210.658 23.3421C212.294 21.6561 214.03 20.2181 215.865 19.0281C217.699 17.7884 219.832 17.1686 222.261 17.1686C226.228 17.1686 229.129 18.5074 230.964 21.1851C232.848 23.8131 233.79 27.4329 233.79 32.0444V54.9532H222.856V33.4576C222.856 30.78 222.484 28.9453 221.741 27.9536C221.046 26.9619 219.906 26.466 218.319 26.466C216.484 26.466 214.377 27.6561 211.997 30.0362V54.9532H201.063V33.4576C201.063 30.78 200.691 28.9453 199.947 27.9536C199.253 26.9619 198.113 26.466 196.526 26.466C194.691 26.466 192.609 27.6561 190.278 30.0362V54.9532H179.344Z" fill="#33CA7F"/>
<path d="M256.532 55.8458C253.011 55.8458 249.838 55.0772 247.011 53.54C244.185 52.0029 241.954 49.7963 240.317 46.9203C238.681 44.0443 237.863 40.5733 237.863 36.5072C237.863 32.4907 238.681 29.0445 240.317 26.1685C242.003 23.2925 244.185 21.0859 246.863 19.5487C249.54 17.962 252.342 17.1686 255.267 17.1686C258.788 17.1686 261.689 17.962 263.97 19.5487C266.3 21.0859 268.036 23.1933 269.176 25.871C270.366 28.499 270.961 31.499 270.961 34.8708C270.961 35.813 270.912 36.7551 270.813 37.6973C270.714 38.5898 270.614 39.2592 270.515 39.7055H248.425C248.92 42.3832 250.036 44.3666 251.772 45.6558C253.507 46.8955 255.59 47.5153 258.019 47.5153C260.648 47.5153 263.3 46.6972 265.978 45.0608L269.623 51.6806C267.738 52.9698 265.631 53.9863 263.3 54.7301C260.97 55.4739 258.714 55.8458 256.532 55.8458ZM248.35 32.4907H261.664C261.664 30.4577 261.168 28.7965 260.176 27.5073C259.234 26.1685 257.672 25.4991 255.491 25.4991C253.805 25.4991 252.292 26.0941 250.953 27.2842C249.615 28.4246 248.747 30.1602 248.35 32.4907Z" fill="#33CA7F"/>
<path d="M275.418 54.9532V18.0611H284.343L285.087 24.5321H285.384C286.723 22.0528 288.335 20.2181 290.219 19.0281C292.103 17.7884 293.988 17.1686 295.872 17.1686C296.913 17.1686 297.781 17.243 298.475 17.3917C299.169 17.4909 299.764 17.6644 300.26 17.9124L298.475 27.3585C297.831 27.1602 297.186 27.0114 296.541 26.9123C295.946 26.8131 295.252 26.7635 294.459 26.7635C293.07 26.7635 291.607 27.2842 290.07 28.3255C288.583 29.3172 287.343 31.0527 286.351 33.532V54.9532H275.418Z" fill="#33CA7F"/>
<path d="M317.07 55.8458C313.946 55.8458 310.996 55.102 308.219 53.6144C305.492 52.0773 303.285 49.8707 301.599 46.9947C299.914 44.0691 299.071 40.5733 299.071 36.5072C299.071 32.3915 299.914 28.8957 301.599 26.0197C303.285 23.1437 305.492 20.9619 308.219 19.4743C310.996 17.9372 313.946 17.1686 317.07 17.1686C320.194 17.1686 323.12 17.9372 325.847 19.4743C328.574 20.9619 330.781 23.1437 332.467 26.0197C334.153 28.8957 334.996 32.3915 334.996 36.5072C334.996 40.5733 334.153 44.0691 332.467 46.9947C330.781 49.8707 328.574 52.0773 325.847 53.6144C323.12 55.102 320.194 55.8458 317.07 55.8458ZM317.07 46.9947C319.302 46.9947 320.988 46.0525 322.128 44.1683C323.269 42.2344 323.839 39.6807 323.839 36.5072C323.839 33.2841 323.269 30.7304 322.128 28.8461C320.988 26.9619 319.302 26.0197 317.07 26.0197C314.789 26.0197 313.079 26.9619 311.938 28.8461C310.847 30.7304 310.302 33.2841 310.302 36.5072C310.302 39.6807 310.847 42.2344 311.938 44.1683C313.079 46.0525 314.789 46.9947 317.07 46.9947Z" fill="#33CA7F"/>
<path d="M344.982 55.8458C343.097 55.8458 341.511 55.2012 340.221 53.9119C338.982 52.5731 338.362 50.9368 338.362 49.0029C338.362 47.0195 338.982 45.3831 340.221 44.0939C341.511 42.7551 343.097 42.0856 344.982 42.0856C346.866 42.0856 348.428 42.7551 349.667 44.0939C350.957 45.3831 351.601 47.0195 351.601 49.0029C351.601 50.9368 350.957 52.5731 349.667 53.9119C348.428 55.2012 346.866 55.8458 344.982 55.8458Z" fill="#33CA7F"/>
<path fill-rule="evenodd" clip-rule="evenodd" d="M3.62693 7.22863C21.2491 -2.90288 42.4533 -0.238255 51.2278 2.46084C52.8638 2.96407 53.782 4.69822 53.2788 6.33417C52.7756 7.97013 51.0414 8.88839 49.4055 8.38516C41.5124 5.95722 22.2756 3.65662 6.7163 12.6021C6.37396 12.7989 6.18145 13.1593 6.19948 13.5349C6.79054 25.8407 13.1867 49.3241 35.2233 61.5992C36.7185 62.4321 37.2555 64.3195 36.4226 65.8148C35.5896 67.3101 33.7023 67.847 32.207 67.0141C7.57543 53.2935 0.654939 27.2942 0.00835065 13.8322C-0.122141 11.1154 1.28531 8.5749 3.62693 7.22863Z" fill="#33CA7F"/>
<path fill-rule="evenodd" clip-rule="evenodd" d="M62.473 6.97702C64.1823 6.88721 65.6407 8.20002 65.7305 9.90927C66.9097 32.3519 55.2569 48.8117 47.7464 55.7741C45.8632 57.5199 43.0504 58.2008 40.477 57.0943C35.1377 54.7987 29.9695 49.9693 25.7725 45.1527C21.5132 40.2645 17.957 35.0403 15.8836 31.5328C15.0127 30.0594 15.501 28.1588 16.9745 27.2878C18.4479 26.4169 20.3484 26.9052 21.2194 28.3787C23.1247 31.6019 26.4643 36.5116 30.4456 41.0807C34.4893 45.7213 38.9065 49.6722 42.9252 51.4001C43.0358 51.4476 43.2732 51.4689 43.5325 51.2285C50.1087 45.1323 60.5974 30.3429 59.5408 10.2345C59.451 8.52526 60.7638 7.06683 62.473 6.97702Z" fill="#33CA7F"/>
<path fill-rule="evenodd" clip-rule="evenodd" d="M29.1679 18.8716C23.6404 19.4416 19.027 20.7703 16.6256 21.7539C15.0417 22.4027 13.2318 21.6446 12.5831 20.0607C11.9343 18.4768 12.6924 16.6669 14.2763 16.0181C17.2638 14.7945 22.4585 13.3324 28.5321 12.706C34.61 12.0793 41.7786 12.2673 48.6048 14.5337C51.5351 15.5066 53.5991 18.3199 53.385 21.554C52.941 28.2583 49.8643 35.1135 43.7347 42.9691C42.6818 44.3186 40.7343 44.5589 39.3849 43.506C38.0355 42.4531 37.7951 40.5056 38.848 39.1562C44.5549 31.8422 46.8686 26.1529 47.2002 21.1445C47.2178 20.8784 47.0506 20.5487 46.6517 20.4162C40.9168 18.5121 34.6911 18.302 29.1679 18.8716Z" fill="#33CA7F"/>
</svg>
